<svg version="1.0" xmlns="http://www.w3.org/2000/svg"
 width="238.000000pt" height="220.000000pt" viewBox="0 0 238.000000 220.000000"
 preserveAspectRatio="xMidYMid meet">

<g transform="translate(0.000000,220.000000) scale(0.100000,-0.100000)"
fill="#000000" stroke="none">
<path d="M650 1178 c0 -38 3 -49 10 -38 13 20 13 90 0 90 -5 0 -10 -24 -10
-52z"/>
<path d="M2000 1197 c0 -23 4 -36 10 -32 13 8 13 35 0 55 -7 11 -10 5 -10 -23z"/>
<path d="M1222 1190 c0 -19 2 -27 5 -17 2 9 2 25 0 35 -3 9 -5 1 -5 -18z"/>
<path d="M1612 1150 c-1 -46 1 -52 10 -33 8 16 8 32 0 55 -9 32 -10 31 -10
-22z"/>
<path d="M329 1185 c-8 -8 1 -54 12 -61 5 -3 9 3 8 13 -1 25 -13 55 -20 48z"/>
<path d="M951 1153 c5 -16 12 -34 15 -42 2 -8 7 -11 10 -8 8 7 -18 77 -28 77
-4 0 -3 -12 3 -27z"/>
<path d="M1288 1154 c-5 -4 -8 -16 -8 -28 0 -14 3 -17 11 -9 6 6 9 19 7 28 -1
9 -6 13 -10 9z"/>
<path d="M852 1065 c0 -16 2 -22 5 -12 2 9 2 23 0 30 -3 6 -5 -1 -5 -18z"/>
<path d="M1840 1058 c0 -9 7 -19 16 -22 15 -6 15 -4 3 11 -7 10 -15 20 -16 22
-2 2 -3 -3 -3 -11z"/>
<path d="M1060 1045 c7 -8 17 -15 22 -15 6 0 5 7 -2 15 -7 8 -17 15 -22 15 -6
0 -5 -7 2 -15z"/>
</g>
</svg>
